Artist: Connect-R
Name: Vara nu dorm
Year: 2012
Language: Romanian
Country: Romania

General
Complete name : C:
Format : AVI
Format/Info : Audio Video Interleave
File size : 142 MiB
Duration : 3mn 28s
Overall bit rate : 5 699 Kbps
Movie name : Connect-R - Vara nu dorm (Official Video)
Writing application : Lavf52.16.0

Video
ID : 0
Format : MPEG-4 Visual
Format profile : Simple@L1
Format settings, BVOP : No
Format settings, QPel : No
Format settings, GMC : No warppoints
Format settings, Matrix : Default (H.263)
Codec ID : DIVX
Codec ID/Info : Project Mayo
Codec ID/Hint : DivX 4
Duration : 3mn 28s
Bit rate : 5 375 Kbps
Width : 640 pixels
Height : 480 pixels
Display aspect ratio : 4:3
Frame rate : 23.976 fps
Color space : YUV
Chroma subsampling : 4:2:0
Bit depth : 8 bits
Scan type : Progressive
Compression mode : Lossy
Bits/(Pixel*Frame) : 0.730
Stream size : 133 MiB (94%)
Writing library : Lavc51.57.2

Audio
ID : 1
Format : MPEG Audio
Format version : Version 1
Format profile : Layer 3
Mode : Joint stereo
Codec ID : 55
Codec ID/Hint : MP3
Duration : 3mn 28s
Bit rate mode : Constant
Bit rate : 320 Kbps
Channel(s) : 2 channels
Sampling rate : 48.0 KHz
Compression mode : Lossy
Stream size : 7.95 MiB (6%)
Alignment : Aligned on interleaves
Interleave, duration : 24 ms (0.57 video frame)
Writing library : LAME3.97
